<?xml version="1.0" encoding="UTF-8"?>
<svg id="Layer_1" data-name="Layer 1" xmlns="http://www.w3.org/2000/svg" viewBox="0 0 400 79.4">
  <defs>
    <style>
      .cls-1 {
        fill: #f03000;
      }

      .cls-2 {
        fill: #515151;
      }
    </style>
  </defs>
  <path class="cls-1" d="M334.24,0h27.59c3.74,0,7.36,.39,10.88,1.18,3.51,.79,6.63,2.08,9.37,3.87,2.73,1.79,4.92,4.15,6.56,7.07,1.64,2.92,2.47,6.47,2.47,10.65,0,5.76-1.65,10.43-4.88,14.07s-7.18,6.61-11.81,8.83l25.59,33.74h-18.88l-22.43-31.12h-8.25v31.12h-16.2V0Zm25.68,34.21c2.02,0,4.04-.15,6.06-.45,2.02-.3,3.83-.86,5.44-1.68,1.61-.82,2.93-2,3.98-3.53,1.05-1.53,1.57-3.5,1.57-5.89,0-2.17-.49-3.94-1.46-5.33-.97-1.38-2.21-2.49-3.7-3.31-1.5-.82-3.2-1.38-5.1-1.68s-3.76-.45-5.55-.45h-10.71v22.32h9.48Z"/>
  <g>
    <path class="cls-2" d="M0,8.22C0,5.98,.81,4.05,2.43,2.43S5.98,0,8.22,0s4.17,.81,5.79,2.43c1.62,1.62,2.43,3.55,2.43,5.79s-.81,4.18-2.43,5.79c-1.62,1.62-3.55,2.43-5.79,2.43s-4.17-.81-5.79-2.43S0,10.46,0,8.22Z"/>
    <rect class="cls-2" x="2.62" y="23.28" width="11.21" height="56.13"/>
  </g>
  <path class="cls-2" d="M24.62,48.15c0-4.35,.82-8.41,2.45-12.18,1.63-3.77,3.87-7.07,6.72-9.92,2.84-2.84,6.19-5.09,10.04-6.72,3.85-1.63,7.99-2.45,12.43-2.45s8.58,.82,12.43,2.45c3.85,1.63,7.2,3.87,10.04,6.72,2.84,2.85,5.08,6.15,6.72,9.92,1.63,3.77,2.45,7.83,2.45,12.18s-.82,8.43-2.45,12.24c-1.63,3.81-3.87,7.11-6.72,9.92-2.85,2.81-6.19,5.02-10.04,6.65-3.85,1.63-7.99,2.45-12.43,2.45s-8.58-.81-12.43-2.45c-3.85-1.63-7.2-3.85-10.04-6.65-2.85-2.8-5.08-6.11-6.72-9.92-1.63-3.8-2.45-7.89-2.45-12.24Zm12.05,0c0,3.01,.46,5.79,1.38,8.35,.92,2.55,2.22,4.73,3.89,6.53,1.67,1.8,3.72,3.22,6.15,4.27,2.43,1.05,5.15,1.57,8.16,1.57s5.73-.52,8.16-1.57c2.43-1.04,4.48-2.46,6.15-4.27,1.67-1.8,2.97-3.97,3.89-6.53,.92-2.55,1.38-5.33,1.38-8.35s-.46-5.8-1.38-8.35c-.92-2.55-2.22-4.73-3.89-6.53-1.68-1.8-3.72-3.22-6.15-4.27-2.43-1.04-5.15-1.57-8.16-1.57s-5.73,.52-8.16,1.57c-2.43,1.05-4.48,2.47-6.15,4.27-1.67,1.8-2.97,3.98-3.89,6.53-.92,2.55-1.38,5.33-1.38,8.35Z"/>
  <path class="cls-1" d="M111.91,13.52h-22.54V0h58.71V13.52h-22.43V79.4h-13.73V13.52Z"/>
  <path class="cls-1" d="M160.9,0h15.83V30.09h30.17V0h15.83V79.4h-15.83V44.58h-30.17v34.82h-15.83V0Z"/>
  <path class="cls-1" d="M315.72,23.14c-2.02-4.86-4.89-9.06-8.51-12.47-3.61-3.4-7.96-6.06-12.93-7.91-4.95-1.84-10.42-2.77-16.26-2.77s-11.19,.93-16.1,2.77c-4.93,1.84-9.25,4.5-12.83,7.91-3.59,3.41-6.44,7.61-8.46,12.46-2.02,4.86-3.04,10.36-3.04,16.35s1.02,11.29,3.04,16.14c2.02,4.85,4.86,9.09,8.44,12.61,3.58,3.51,7.9,6.28,12.82,8.23,4.91,1.94,10.34,2.93,16.12,2.93s11.33-.98,16.28-2.93c4.96-1.95,9.3-4.71,12.92-8.23,3.62-3.51,6.48-7.76,8.5-12.61,2.02-4.85,3.04-10.29,3.04-16.14s-1.02-11.5-3.04-16.35Zm-13.34,16.35c0,3.79-.59,7.32-1.75,10.47-1.15,3.13-2.82,5.89-4.96,8.2-2.14,2.3-4.72,4.12-7.68,5.4-2.97,1.28-6.28,1.94-9.85,1.94s-6.86-.65-9.79-1.93c-2.93-1.28-5.5-3.1-7.64-5.4-2.14-2.31-3.81-5.07-4.97-8.21-1.16-3.14-1.75-6.67-1.75-10.47s.59-7.1,1.75-10.21c1.15-3.1,2.81-5.85,4.92-8.16,2.1-2.3,4.65-4.13,7.59-5.45,2.92-1.32,6.25-1.98,9.89-1.98s6.98,.67,9.94,1.98c2.97,1.32,5.53,3.15,7.63,5.45,2.11,2.31,3.77,5.06,4.92,8.16,1.16,3.12,1.75,6.56,1.75,10.21Z"/>
</svg>